<svg width="308" height="308" viewBox="0 0 308 308" fill="none" xmlns="http://www.w3.org/2000/svg">
<path d="M176.417 71.9312L164.346 132.629H143.654L131.583 71.9312C126.334 37.1471 132.597 13.8889 137.888 1.52194C137.894 1.5069 137.901 1.49126 137.907 1.47622C138.736 -0.457799 141.478 -0.495096 142.426 1.38358L154 24.3386L165.574 1.38358C166.522 -0.495096 169.263 -0.457799 170.093 1.47622C170.1 1.49126 170.106 1.5069 170.112 1.52194C175.403 13.8895 181.666 37.1477 176.417 71.9312Z" fill="#EAF6FF"/>
<path d="M176.42 71.9318L164.349 132.628H151.714L163.785 71.9318C167.931 44.4747 164.894 24.1991 160.836 10.7896L165.576 1.38299C166.524 -0.494485 169.263 -0.457188 170.093 1.47623C170.099 1.48887 170.106 1.50691 170.112 1.51955C175.403 13.8883 181.668 37.1501 176.42 71.9318Z" fill="#D8ECFE"/>
<path d="M132.379 71.7183L152.275 130.32L134.355 140.666L93.5526 94.1355C71.6148 66.6363 65.4097 43.3624 63.8077 30.0071C63.8059 29.9909 63.8035 29.9741 63.8017 29.9578C63.5527 27.8686 65.909 26.4651 67.6686 27.6183L89.1696 41.7105L87.7156 16.0437C87.5965 13.943 89.9901 12.6039 91.6751 13.8642C91.6884 13.8738 91.7016 13.8841 91.7148 13.8943C102.48 21.9588 119.533 38.9698 132.379 71.7183Z" fill="#C4E2FF"/>
<path d="M94.1349 93.552L140.665 134.354L130.319 152.274L71.7177 132.379C38.9692 119.532 21.9588 102.479 13.8937 91.7142C13.8835 91.701 13.8738 91.6878 13.8636 91.6745C12.6033 89.9896 13.9424 87.5959 16.0431 87.715L41.7099 89.169L27.6177 67.6686C26.4645 65.909 27.868 63.5527 29.9572 63.8017C29.9735 63.8035 29.9903 63.8059 30.0065 63.8077C43.3618 65.4091 66.6357 71.6148 94.1349 93.552Z" fill="#EAF6FF"/>
<path d="M130.316 152.277L71.7213 132.38C38.9722 119.534 21.9564 102.481 13.8943 91.7178C13.8817 91.6992 13.8756 91.6865 13.863 91.6745C12.6051 89.9889 13.9436 87.5971 16.0443 87.715L25.4629 88.248C34.9809 98.5467 51.1232 111.554 77.3844 121.859L135.986 141.75L130.316 152.277Z" fill="#D8ECFE"/>
<path d="M71.9312 131.583L132.629 143.654V164.346L71.9312 176.417C37.1471 181.666 13.8889 175.403 1.52195 170.112C1.50691 170.106 1.49127 170.099 1.47623 170.093C-0.457791 169.264 -0.495088 166.522 1.38359 165.574L24.3386 154L1.38419 142.426C-0.494487 141.478 -0.45719 138.737 1.47683 137.907C1.49187 137.9 1.50751 137.894 1.52255 137.888C13.8895 132.597 37.1477 126.334 71.9312 131.583Z" fill="#C4E2FF"/>
<path d="M71.7183 175.621L130.319 155.725L140.666 173.645L94.1355 214.447C66.6363 236.385 43.3624 242.59 30.0071 244.192C29.9909 244.194 29.9741 244.196 29.9578 244.198C27.8686 244.447 26.4651 242.091 27.6183 240.331L41.7105 218.83L16.0437 220.284C13.943 220.403 12.6039 218.01 13.8642 216.325C13.8738 216.312 13.8841 216.298 13.8943 216.285C21.9588 205.52 38.9698 188.467 71.7183 175.621Z" fill="#EAF6FF"/>
<path d="M140.665 173.643L94.1343 214.448C66.6339 236.384 43.3594 242.593 30.0053 244.192C29.9867 244.192 29.974 244.198 29.956 244.198C27.8674 244.446 26.4669 242.091 27.6201 240.331L35.6263 228.111C48.8872 224.449 66.3926 216.803 86.0667 201.113L132.597 160.308L140.665 173.643Z" fill="#D8ECFE"/>
<path d="M93.552 213.865L134.354 167.335L152.274 177.681L132.379 236.282C119.532 269.031 102.479 286.041 91.7142 294.106C91.701 294.117 91.6877 294.126 91.6745 294.136C89.9895 295.397 87.5959 294.058 87.715 291.957L89.169 266.29L67.668 280.382C65.9084 281.535 63.5521 280.132 63.8011 278.043C63.8029 278.027 63.8053 278.01 63.8071 277.993C65.4091 264.638 71.6148 241.364 93.552 213.865Z" fill="#C4E2FF"/>
<path d="M176.417 236.069L164.346 175.371H143.654L131.583 236.069C126.334 270.853 132.597 294.111 137.888 306.478C137.894 306.493 137.901 306.509 137.907 306.524C138.736 308.458 141.478 308.495 142.426 306.616L154 283.661L165.574 306.616C166.522 308.494 169.263 308.457 170.093 306.523C170.1 306.508 170.106 306.492 170.112 306.477C175.403 294.111 181.666 270.852 176.417 236.069Z" fill="#EAF6FF"/>
<path d="M170.111 306.48C170.105 306.493 170.098 306.512 170.092 306.524C169.262 308.457 166.523 308.494 165.575 306.616L160.835 297.21C164.894 283.8 167.93 263.525 163.784 236.068L151.713 175.372H164.348L176.419 236.068C181.668 270.85 175.403 294.112 170.111 306.48Z" fill="#D8ECFE"/>
<path d="M214.448 213.865L173.646 167.335L155.726 177.681L175.621 236.282C188.468 269.031 205.521 286.041 216.286 294.106C216.299 294.117 216.312 294.126 216.325 294.136C218.01 295.397 220.404 294.058 220.285 291.957L218.831 266.29L240.332 280.382C242.092 281.535 244.448 280.132 244.199 278.043C244.197 278.027 244.195 278.01 244.193 277.993C242.591 264.638 236.385 241.364 214.448 213.865Z" fill="#C4E2FF"/>
<path d="M236.282 175.621L177.68 155.725L167.334 173.645L213.864 214.447C241.364 236.385 264.638 242.59 277.993 244.192C278.009 244.194 278.026 244.196 278.042 244.198C280.131 244.447 281.535 242.091 280.382 240.331L266.289 218.83L291.956 220.284C294.057 220.403 295.396 218.01 294.136 216.325C294.126 216.312 294.116 216.298 294.106 216.285C286.041 205.52 269.03 188.467 236.282 175.621Z" fill="#EAF6FF"/>
<path d="M280.38 240.331C281.532 242.091 280.132 244.446 278.044 244.198C278.025 244.198 278.013 244.192 277.995 244.192C264.641 242.593 241.367 236.385 213.866 214.449L167.335 173.644L173.272 163.364L219.529 203.927C241.825 221.712 261.338 229.154 275.045 232.19L280.38 240.331Z" fill="#D8ECFE"/>
<path d="M236.069 131.583L175.371 143.654V164.346L236.069 176.417C270.853 181.666 294.111 175.403 306.478 170.112C306.493 170.106 306.509 170.099 306.524 170.093C308.458 169.264 308.495 166.522 306.616 165.574L283.661 154L306.616 142.426C308.494 141.478 308.457 138.737 306.523 137.907C306.508 137.9 306.492 137.894 306.477 137.888C294.111 132.597 270.852 126.334 236.069 131.583Z" fill="#C4E2FF"/>
<path d="M213.865 93.552L167.335 134.354L177.681 152.274L236.282 132.379C269.031 119.532 286.041 102.479 294.106 91.7142C294.117 91.701 294.126 91.6877 294.136 91.6745C295.397 89.9895 294.058 87.5959 291.957 87.715L266.29 89.169L280.382 67.668C281.535 65.9084 280.132 63.5521 278.043 63.8011C278.027 63.8029 278.01 63.8053 277.993 63.8071C264.638 65.4091 241.364 71.6148 213.865 93.552Z" fill="#EAF6FF"/>
<path d="M294.136 91.6745C294.124 91.6871 294.118 91.6992 294.105 91.7178C286.044 102.482 269.027 119.535 236.278 132.38L177.683 152.277L169.919 138.836L228.21 119.044C251.887 109.756 267.336 98.273 277.126 88.5572L291.955 87.7144C294.056 87.5971 295.394 89.9889 294.136 91.6745Z" fill="#D8ECFE"/>
<path d="M175.621 71.7183L155.725 130.319L173.645 140.666L214.447 94.1355C236.385 66.6363 242.59 43.3624 244.192 30.0071C244.194 29.9909 244.196 29.9741 244.198 29.9578C244.447 27.8686 242.091 26.4651 240.331 27.6183L218.83 41.7099L220.284 16.0431C220.403 13.9424 218.01 12.6033 216.325 13.8636C216.312 13.8732 216.298 13.8835 216.285 13.8937C205.52 21.9588 188.467 38.9698 175.621 71.7183Z" fill="#C4E2FF"/>
<path d="M154 188.878C173.263 188.878 188.878 173.263 188.878 154C188.878 134.737 173.263 119.122 154 119.122C134.737 119.122 119.122 134.737 119.122 154C119.122 173.263 134.737 188.878 154 188.878Z" fill="#FED402"/>
<path d="M188.881 154C188.881 173.265 173.266 188.881 154 188.881C144.965 188.881 136.73 185.448 130.534 179.803C134.376 181.265 138.552 182.065 142.908 182.065C162.167 182.065 177.783 166.449 177.783 147.184C177.783 136.953 173.383 127.757 166.369 121.381C179.53 126.369 188.881 139.091 188.881 154Z" fill="#FAC600"/>
</svg>
