<svg width="228" height="57" viewBox="0 0 228 57" fill="none" xmlns="http://www.w3.org/2000/svg">
<path d="M13.7969 51H11.6406V32.4375H2.90625V51H0.765625V30.6094H13.7969V51ZM32.0312 43.7344C32.0312 44.8698 31.8542 45.901 31.5 46.8281C31.1458 47.7552 30.6458 48.5573 30 49.2344C29.3646 49.901 28.5938 50.4219 27.6875 50.7969C26.7812 51.1719 25.7656 51.3594 24.6406 51.3594C23.8698 51.3594 23.1198 51.2188 22.3906 50.9375C21.6719 50.6562 21 50.2396 20.375 49.6875V56.8281H18.2344V36.4375H20.375V37.7812C21.6979 36.6562 23.1198 36.0938 24.6406 36.0938C25.7656 36.0938 26.7812 36.2812 27.6875 36.6562C28.5938 37.0208 29.3646 37.5469 30 38.2344C30.6458 38.9115 31.1458 39.724 31.5 40.6719C31.8542 41.6094 32.0312 42.6302 32.0312 43.7344ZM29.8906 43.7344C29.8906 42.9219 29.776 42.1615 29.5469 41.4531C29.3281 40.7344 28.9948 40.1146 28.5469 39.5938C28.099 39.0729 27.5469 38.6615 26.8906 38.3594C26.2448 38.0573 25.4948 37.9062 24.6406 37.9062C23.8281 37.9062 23.0677 38.0573 22.3594 38.3594C21.6615 38.6615 21 39.151 20.375 39.8281V47.6406C21 48.3177 21.6615 48.8021 22.3594 49.0938C23.0677 49.3854 23.8281 49.5312 24.6406 49.5312C25.4948 49.5312 26.2448 49.3802 26.8906 49.0781C27.5469 48.776 28.099 48.3646 28.5469 47.8438C28.9948 47.3229 29.3281 46.7135 29.5469 46.0156C29.776 45.3073 29.8906 44.5469 29.8906 43.7344ZM49.875 43.7656C49.875 44.901 49.6927 45.9323 49.3281 46.8594C48.974 47.7865 48.4583 48.5833 47.7812 49.25C47.1146 49.9062 46.3125 50.4219 45.375 50.7969C44.4375 51.1719 43.3906 51.3594 42.2344 51.3594C41.099 51.3594 40.0625 51.1719 39.125 50.7969C38.1875 50.4219 37.3802 49.9062 36.7031 49.25C36.0365 48.5833 35.5208 47.7865 35.1562 46.8594C34.8021 45.9323 34.625 44.901 34.625 43.7656C34.625 42.6615 34.8021 41.6354 35.1562 40.6875C35.5208 39.7292 36.0365 38.9167 36.7031 38.25C37.3802 37.5729 38.1875 37.0469 39.125 36.6719C40.0625 36.2865 41.099 36.0938 42.2344 36.0938C43.3906 36.0938 44.4375 36.2865 45.375 36.6719C46.3125 37.0469 47.1146 37.5729 47.7812 38.25C48.4583 38.9167 48.974 39.7292 49.3281 40.6875C49.6927 41.6354 49.875 42.6615 49.875 43.7656ZM47.7344 43.7656C47.7344 42.9323 47.6094 42.1667 47.3594 41.4688C47.1198 40.7604 46.7604 40.1406 46.2812 39.6094C45.8021 39.0781 45.2188 38.6615 44.5312 38.3594C43.8542 38.0573 43.0885 37.9062 42.2344 37.9062C41.3802 37.9062 40.6094 38.0573 39.9219 38.3594C39.2448 38.6615 38.6719 39.0781 38.2031 39.6094C37.7344 40.1406 37.375 40.7604 37.125 41.4688C36.8854 42.1667 36.7656 42.9323 36.7656 43.7656C36.7656 44.599 36.8854 45.3698 37.125 46.0781C37.375 46.776 37.7344 47.3802 38.2031 47.8906C38.6719 48.401 39.2448 48.8021 39.9219 49.0938C40.6094 49.3854 41.3802 49.5312 42.2344 49.5312C43.0885 49.5312 43.8542 49.3854 44.5312 49.0938C45.2188 48.8021 45.8021 48.401 46.2812 47.8906C46.7604 47.3802 47.1198 46.776 47.3594 46.0781C47.6094 45.3698 47.7344 44.599 47.7344 43.7656ZM66.4219 48.25C65.8073 49.2083 64.9635 49.9688 63.8906 50.5312C62.8281 51.0833 61.5625 51.3594 60.0938 51.3594C58.9583 51.3594 57.9167 51.1719 56.9688 50.7969C56.0208 50.4219 55.2083 49.901 54.5312 49.2344C53.8646 48.5573 53.3438 47.7552 52.9688 46.8281C52.5938 45.901 52.4062 44.8698 52.4062 43.7344C52.4062 42.6302 52.5781 41.6094 52.9219 40.6719C53.2656 39.724 53.7552 38.9167 54.3906 38.25C55.026 37.5729 55.8021 37.0469 56.7188 36.6719C57.6458 36.2865 58.6719 36.0938 59.7969 36.0938C60.2448 36.0938 60.7031 36.1458 61.1719 36.25C61.6406 36.3542 62.0833 36.5156 62.5 36.7344C62.9167 36.9427 63.2917 37.1979 63.625 37.5C63.9583 37.7917 64.2083 38.1406 64.375 38.5469V36.4375H66.2969V42.2656H64.375C64.375 41.6198 64.2552 41.0312 64.0156 40.5C63.7865 39.9688 63.4688 39.5104 63.0625 39.125C62.6562 38.7396 62.1719 38.4427 61.6094 38.2344C61.0469 38.0156 60.4427 37.9062 59.7969 37.9062C58.9219 37.9062 58.1562 38.0573 57.5 38.3594C56.8542 38.6615 56.3125 39.0729 55.875 39.5938C55.4375 40.1146 55.1042 40.7292 54.875 41.4375C54.6562 42.1354 54.5469 42.901 54.5469 43.7344C54.5469 44.5677 54.6719 45.3385 54.9219 46.0469C55.1823 46.7448 55.5521 47.349 56.0312 47.8594C56.5208 48.3698 57.1042 48.776 57.7812 49.0781C58.4688 49.3802 59.2396 49.5312 60.0938 49.5312C61.1771 49.5312 62.1406 49.3229 62.9844 48.9062C63.8281 48.4896 64.474 47.9271 64.9219 47.2188L66.4219 48.25ZM84.4375 43.3125H82.6094V38.2656H78.2344V49.1719H81.5156V51H72.7812V49.1719H76.0781V38.2656H71.7031V43.3125H69.875V36.4375H84.4375V43.3125ZM102.281 43.7656C102.281 44.901 102.099 45.9323 101.734 46.8594C101.38 47.7865 100.865 48.5833 100.188 49.25C99.5208 49.9062 98.7188 50.4219 97.7812 50.7969C96.8438 51.1719 95.7969 51.3594 94.6406 51.3594C93.5052 51.3594 92.4688 51.1719 91.5312 50.7969C90.5938 50.4219 89.7865 49.9062 89.1094 49.25C88.4427 48.5833 87.9271 47.7865 87.5625 46.8594C87.2083 45.9323 87.0312 44.901 87.0312 43.7656C87.0312 42.6615 87.2083 41.6354 87.5625 40.6875C87.9271 39.7292 88.4427 38.9167 89.1094 38.25C89.7865 37.5729 90.5938 37.0469 91.5312 36.6719C92.4688 36.2865 93.5052 36.0938 94.6406 36.0938C95.7969 36.0938 96.8438 36.2865 97.7812 36.6719C98.7188 37.0469 99.5208 37.5729 100.188 38.25C100.865 38.9167 101.38 39.7292 101.734 40.6875C102.099 41.6354 102.281 42.6615 102.281 43.7656ZM100.141 43.7656C100.141 42.9323 100.016 42.1667 99.7656 41.4688C99.526 40.7604 99.1667 40.1406 98.6875 39.6094C98.2083 39.0781 97.625 38.6615 96.9375 38.3594C96.2604 38.0573 95.4948 37.9062 94.6406 37.9062C93.7865 37.9062 93.0156 38.0573 92.3281 38.3594C91.651 38.6615 91.0781 39.0781 90.6094 39.6094C90.1406 40.1406 89.7812 40.7604 89.5312 41.4688C89.2917 42.1667 89.1719 42.9323 89.1719 43.7656C89.1719 44.599 89.2917 45.3698 89.5312 46.0781C89.7812 46.776 90.1406 47.3802 90.6094 47.8906C91.0781 48.401 91.651 48.8021 92.3281 49.0938C93.0156 49.3854 93.7865 49.5312 94.6406 49.5312C95.4948 49.5312 96.2604 49.3854 96.9375 49.0938C97.625 48.8021 98.2083 48.401 98.6875 47.8906C99.1667 47.3802 99.526 46.776 99.7656 46.0781C100.016 45.3698 100.141 44.599 100.141 43.7656ZM136.078 51H133.922V38.2656H125.188V51H123.047V36.4375H136.078V51ZM154.688 43.7656C154.688 44.901 154.505 45.9323 154.141 46.8594C153.786 47.7865 153.271 48.5833 152.594 49.25C151.927 49.9062 151.125 50.4219 150.188 50.7969C149.25 51.1719 148.203 51.3594 147.047 51.3594C145.911 51.3594 144.875 51.1719 143.938 50.7969C143 50.4219 142.193 49.9062 141.516 49.25C140.849 48.5833 140.333 47.7865 139.969 46.8594C139.615 45.9323 139.438 44.901 139.438 43.7656C139.438 42.6615 139.615 41.6354 139.969 40.6875C140.333 39.7292 140.849 38.9167 141.516 38.25C142.193 37.5729 143 37.0469 143.938 36.6719C144.875 36.2865 145.911 36.0938 147.047 36.0938C148.203 36.0938 149.25 36.2865 150.188 36.6719C151.125 37.0469 151.927 37.5729 152.594 38.25C153.271 38.9167 153.786 39.7292 154.141 40.6875C154.505 41.6354 154.688 42.6615 154.688 43.7656ZM152.547 43.7656C152.547 42.9323 152.422 42.1667 152.172 41.4688C151.932 40.7604 151.573 40.1406 151.094 39.6094C150.615 39.0781 150.031 38.6615 149.344 38.3594C148.667 38.0573 147.901 37.9062 147.047 37.9062C146.193 37.9062 145.422 38.0573 144.734 38.3594C144.057 38.6615 143.484 39.0781 143.016 39.6094C142.547 40.1406 142.188 40.7604 141.938 41.4688C141.698 42.1667 141.578 42.9323 141.578 43.7656C141.578 44.599 141.698 45.3698 141.938 46.0781C142.188 46.776 142.547 47.3802 143.016 47.8906C143.484 48.401 144.057 48.8021 144.734 49.0938C145.422 49.3854 146.193 49.5312 147.047 49.5312C147.901 49.5312 148.667 49.3854 149.344 49.0938C150.031 48.8021 150.615 48.401 151.094 47.8906C151.573 47.3802 151.932 46.776 152.172 46.0781C152.422 45.3698 152.547 44.599 152.547 43.7656ZM171.781 43.3125H169.953V38.2656H165.578V49.1719H168.859V51H160.125V49.1719H163.422V38.2656H159.047V43.3125H157.219V36.4375H171.781V43.3125ZM180.094 45.1719C178.365 45.0885 177.036 44.7031 176.109 44.0156C175.182 43.3177 174.719 42.2552 174.719 40.8281C174.719 39.3073 175.234 38.1979 176.266 37.5C177.307 36.7917 178.797 36.4375 180.734 36.4375H188.484V51H186.328V45.1719H182.844L177.531 51H174.5L180.094 45.1719ZM176.859 40.8281C176.859 41.6406 177.203 42.2656 177.891 42.7031C178.589 43.1406 179.547 43.3594 180.766 43.3594H186.328V38.2656H180.766C179.547 38.2656 178.589 38.4896 177.891 38.9375C177.203 39.3854 176.859 40.0156 176.859 40.8281ZM205.953 51H203.797V44.4688H195.062V51H192.922V36.4375H195.062V42.6406H203.797V36.4375H205.953V51ZM210.391 36.4375H212.531V48.1875L220.406 36.4375H223.422V51H221.266V38.7188L213.047 51H210.391V36.4375Z" fill="black"/>
<path d="M111.469 11.4531L103.469 3.45313L104.703 2.23438L111.469 8.98438L118.219 2.23438L119.469 3.45313L111.469 11.4531ZM111.469 28.9219L103.469 20.9219L104.703 19.7031L111.469 26.4531L118.219 19.7031L119.469 20.9219L111.469 28.9219Z" fill="black"/>
</svg>
