<svg width="27" height="27" viewBox="0 0 27 27" fill="none" xmlns="http://www.w3.org/2000/svg">
<path d="M0.476907 13.018L6.69825 15.34L9.10629 23.0843C9.26037 23.5803 9.86688 23.7636 10.2694 23.4345L13.7373 20.6074C14.1008 20.3112 14.6186 20.2964 14.9985 20.5722L21.2533 25.1133C21.684 25.4263 22.2941 25.1904 22.4021 24.67L26.9841 2.62978C27.102 2.06134 26.5434 1.58713 26.0022 1.79647L0.469617 11.6462C-0.160473 11.8892 -0.154983 12.7812 0.476907 13.018ZM8.71821 14.104L20.877 6.61534C21.0955 6.48115 21.3204 6.77663 21.1327 6.95069L11.0982 16.2783C10.7455 16.6066 10.5179 17.046 10.4535 17.5229L10.1117 20.056C10.0664 20.3943 9.5913 20.4278 9.49797 20.1005L8.18334 15.4812C8.03277 14.9544 8.25219 14.3916 8.71821 14.104Z" fill="white"/>
</svg>
