<svg width="25" height="25" viewBox="0 0 25 25" fill="none" xmlns="http://www.w3.org/2000/svg">
<path d="M22.6985 5.49155C20.0744 5.49155 17.9395 3.35659 17.9395 0.732422C17.9395 0.32793 17.6116 0 17.2071 0H13.2845C12.88 0 12.5521 0.32793 12.5521 0.732422V16.8148C12.5521 18.3575 11.297 19.6126 9.7542 19.6126C8.21147 19.6126 6.95639 18.3575 6.95639 16.8148C6.95639 15.272 8.21147 14.0169 9.7542 14.0169C10.1587 14.0169 10.4866 13.689 10.4866 13.2845V9.36191C10.4866 8.95742 10.1587 8.62949 9.7542 8.62949C5.24087 8.62949 1.56899 12.3014 1.56899 16.8148C1.56904 21.3281 5.24087 25 9.75425 25C14.2676 25 17.9395 21.3281 17.9395 16.8148V9.69614C19.3973 10.4732 21.0193 10.879 22.6986 10.879C23.1031 10.879 23.431 10.551 23.431 10.1465V6.22397C23.431 5.81948 23.103 5.49155 22.6985 5.49155Z" fill="white"/>
</svg>
