<svg width="33" height="33" viewBox="0 0 33 33" fill="none" xmlns="http://www.w3.org/2000/svg">
<g clip-path="url(#clip0_1_158)">
<path d="M31.6331 22.2898C30.6506 21.1113 29.4943 20.1055 28.4003 19.0375C27.4134 18.0748 27.3511 17.5164 28.1445 16.4053C29.0104 15.1926 29.9416 14.0264 30.8154 12.8192C31.631 11.691 32.4648 10.5659 32.894 9.21506C33.1662 8.35565 32.9254 7.97605 32.0442 7.82558C31.8923 7.79925 31.7353 7.79788 31.5808 7.79788L26.3522 7.79172C25.7082 7.78215 25.3522 8.06292 25.1245 8.63369C24.817 9.4052 24.5 10.176 24.1337 10.9205C23.3027 12.6086 22.3746 14.2402 21.0733 15.6218C20.7864 15.9265 20.4691 16.3115 19.9896 16.1529C19.3898 15.934 19.213 14.9457 19.2229 14.6116L19.2177 8.57658C19.1015 7.71444 18.9103 7.33005 18.0543 7.16248L12.6229 7.1635C11.8979 7.1635 11.5344 7.44359 11.1473 7.89705C10.924 8.15901 10.8566 8.32898 11.3155 8.41584C12.217 8.58683 12.7248 9.17026 12.8596 10.0741C13.0757 11.5183 13.0607 12.9683 12.9362 14.4183C12.8996 14.8417 12.8268 15.2641 12.6588 15.6594C12.3962 16.2808 11.9721 16.4073 11.4151 16.025C10.9106 15.6789 10.5563 15.1905 10.2096 14.7001C8.90695 12.8596 7.86766 10.8747 7.02023 8.78895C6.77537 8.18637 6.35302 7.82113 5.71454 7.81122C4.14586 7.78625 2.57684 7.78215 1.00817 7.81259C0.064293 7.83037 -0.217159 8.28863 0.16723 9.14427C1.87578 12.9447 3.77755 16.6395 6.26 20.0053C7.53457 21.7327 8.99792 23.2576 10.8884 24.3382C13.0309 25.5632 15.3373 25.9319 17.7664 25.8183C18.9038 25.765 19.2454 25.4692 19.2981 24.3355C19.3337 23.5599 19.4216 22.7887 19.8042 22.0917C20.1797 21.4078 20.7485 21.2775 21.404 21.7029C21.732 21.916 22.0083 22.1872 22.2693 22.4731C22.9094 23.1734 23.5267 23.895 24.1912 24.5718C25.0246 25.4199 26.0119 25.9209 27.2533 25.8187L32.0589 25.8197C32.8331 25.7691 33.2346 24.8197 32.79 23.9556C32.4778 23.3502 32.0681 22.8113 31.6331 22.2898Z" fill="white"/>
</g>
<defs>
<clipPath id="clip0_1_158">
<rect width="33" height="33" fill="white"/>
</clipPath>
</defs>
</svg>
